<?xml version="1.0" encoding="UTF-8"?>
<mxfile host="Electron" modified="2025-09-14T10:30:00.000Z" agent="Mozilla/5.0" etag="abc123" version="20.7.0" type="device">
  <diagram id="d1" name="CBDRI Framework">
    <mxGraphModel dx="1262" dy="768" grid="1" gridSize="10" guides="1" tooltips="1" connect="1" arrows="1" fold="1" page="1" pageScale="1" pageWidth="827" pageHeight="1169" math="0" shadow="0">
      <root>
        <mxCell id="0"/>
        <mxCell id="1" parent="0"/>

        <!-- Central Title: CBDRI -->
        <mxCell id="2" value="跨境数据风险指数 (CBDRI)" style="rounded=1;whiteSpace=wrap;html=1;fillColor=#f0f8ff;strokeColor=#0066cc;fontSize=16;fontStyle=1;" vertex="1" parent="1">
          <mxGeometry x="250" y="40" width="300" height="50" as="geometry"/>
        </mxCell>

        <!-- Dimension 1: Encrypted Traffic -->
        <mxCell id="3" value="加密流量维度&#xa;TLS 1.3盲检测模型&#xa;输出: P(E|T)" style="text;strokeColor=none;fillColor=none;align=left;verticalAlign=top;whiteSpace=wrap;rounded=1;html=1;fillColor=#e6f3ff;strokeColor=#0066cc;spacingLeft=4;spacingRight=4;autosize=1;" vertex="1" parent="1">
          <mxGeometry x="60" y="140" width="180" height="80" as="geometry"/>
        </mxCell>

        <!-- Dimension 2: Container -->
        <mxCell id="4" value="容器主体维度&#xa;贝叶斯在线更新&#xa;输出: P(E|H_t)" style="text;strokeColor=none;fillColor=none;align=left;verticalAlign=top;whiteSpace=wrap;rounded=1;html=1;fillColor=#e6ffe6;strokeColor=#00cc66;autosize=1;" vertex="1" parent="1">
          <mxGeometry x="280" y="140" width="180" height="80" as="geometry"/>
        </mxCell>

        <!-- Dimension 3: Rules -->
        <mxCell id="5" value="国际规则维度&#xa;制度耦合系数 (ICC)&#xa;输出: W_i, ICC_ij" style="text;strokeColor=none;fillColor=none;align=left;verticalAlign=top;whiteSpace=wrap;rounded=1;html=1;fillColor=#fff2e6;strokeColor=#ff9900;autosize=1;" vertex="1" parent="1">
          <mxGeometry x="500" y="140" width="180" height="80" as="geometry"/>
        </mxCell>

        <!-- Arrows to CBDRI -->
        <mxCell id="6" style="edgeStyle=orthogonalEdgeStyle;rounded=0;orthogonalLoop=1;jettySize=auto;sourcePerimeterSpacing=4;targetPerimeterSpacing=4;strokeColor=#000000;" edge="1" parent="1" source="3" target="2">
          <mxGeometry relative="1" as="geometry"/>
        </mxCell>
        <mxCell id="7" style="edgeStyle=orthogonalEdgeStyle;rounded=0;orthogonalLoop=1;jettySize=auto;sourcePerimeterSpacing=4;targetPerimeterSpacing=4;strokeColor=#000000;" edge="1" parent="1" source="4" target="2">
          <mxGeometry relative="1" as="geometry"/>
        </mxCell>
        <mxCell id="8" style="edgeStyle=orthogonalEdgeStyle;rounded=0;orthogonalLoop=1;jettySize=auto;sourcePerimeterSpacing=4;targetPerimeterSpacing=4;strokeColor=#000000;" edge="1" parent="1" source="5" target="2">
          <mxGeometry relative="1" as="geometry"/>
        </mxCell>

        <!-- Output Box -->
        <mxCell id="9" value="综合风险输出&#xa;R = f(P(E|H_t), ICC)" style="text;strokeColor=none;fillColor=none;align=center;verticalAlign=top;whiteSpace=wrap;rounded=1;html=1;fillColor=#ffe6e6;strokeColor=#cc0000;fontSize=14;autosize=1;" vertex="1" parent="1">
          <mxGeometry x="280" y="260" width="240" height="60" as="geometry"/>
        </mxCell>

        <!-- Arrow from CBDRI to Output -->
        <mxCell id="10" style="edgeStyle=orthogonalEdgeStyle;rounded=0;orthogonalLoop=1;jettySize=auto;sourcePerimeterSpacing=4;targetPerimeterSpacing=4;strokeColor=#000000;" edge="1" parent="1" source="2" target="9">
          <mxGeometry relative="1" as="geometry"/>
        </mxCell>
      </root>
    </mxGraphModel>
  </diagram>
</mxfile>
